<svg width="870" height="550" xmlns="http://www.w3.org/2000/svg" xmlns:xlink="http://www.w3.org/1999/xlink">
 <defs>
  <linearGradient y2="0" x2="0.5" y1="1" x1="0.5" id="b752362c-f89d-48d5-9dd1-266417fc8d3c">
   <stop stop-opacity="0.25" stop-color="gray" offset="0"/>
   <stop stop-opacity="0.12" stop-color="gray" offset="0.54"/>
   <stop stop-opacity="0.1" stop-color="gray" offset="1"/>
  </linearGradient>
  <linearGradient xlink:href="#b752362c-f89d-48d5-9dd1-266417fc8d3c" gradientTransform="translate(74.47 -1004.13)" y2="1173.83" x2="567.7" y1="1179.83" x1="567.7" id="a11e32f9-0bc0-4cef-b66b-30dd4b707f0c"/>
  <linearGradient xlink:href="#b752362c-f89d-48d5-9dd1-266417fc8d3c" y2="483.16" x2="588.52" y1="693.03" x1="588.52" id="ada07a9a-e50a-4215-9506-0eaaef22308f"/>
 </defs>
 <title>about me</title>
 <g>
  <title>background</title>
  <rect fill="none" id="canvas_background" height="552" width="872" y="-1" x="-1"/>
 </g>
 <g>
  <title>Layer 1</title>
  <g stroke="null" id="svg_72">
   <ellipse stroke="null" id="svg_1" opacity="0.1" fill="#8163ff" ry="22.01904" rx="401.482807" cy="521.010969" cx="416.174007"/>
   <g stroke="null" id="svg_2" opacity="0.2">
    <path stroke="null" id="svg_3" fill="#3f3d56" d="m747.527193,521.998276a13.157653,12.59347 0 0 1 -1.283854,1.896479q-6.411851,-4.325676 -13.038915,-8.473779c0.089053,-0.177573 0.185528,-0.362249 0.289424,-0.539822a12.497173,11.961311 0 0 1 4.452674,-4.631101c2.44155,-1.420583 5.194787,-1.761523 7.421124,-0.610851s3.532455,3.508841 3.666035,6.23636a12.497173,11.961311 0 0 1 -1.506488,6.122714z"/>
    <ellipse stroke="null" id="svg_4" fill="#3f3d56" transform="matrix(0.3473709776074249,-0.6276733070973125,0.6557928143860824,0.33247618077150154,-879.8654784045424,369.8893818277384) " ry="10.7" rx="14.01" cy="2027.454006" cx="854.305321"/>
    <ellipse stroke="null" id="svg_5" fill="#3f3d56" transform="matrix(0.3473709776074249,-0.6276733070973125,0.6557928143860824,0.33247618077150154,-872.2661401698707,380.59506867064675) " ry="10.7" rx="14.01" cy="2011.344035" cx="879.95532"/>
    <ellipse stroke="null" id="svg_6" fill="#3f3d56" transform="matrix(0.3473709776074249,-0.6276733070973125,0.6557928143860824,0.33247618077150154,-864.6668049468368,391.3007507247877) " ry="10.7" rx="14.01" cy="1995.244065" cx="905.615312"/>
    <ellipse stroke="null" id="svg_7" fill="#3f3d56" transform="matrix(0.3473709776074249,-0.6276733070973125,0.6557928143860824,0.33247618077150154,-857.0673866593315,402.00639144764665) " ry="10.7" rx="14.01" cy="1979.133972" cx="931.275312"/>
    <path stroke="null" id="svg_8" fill="#8163ff" d="m778.73302,388.53448a38.508212,36.857032 0 0 1 -0.578848,-4.972041l20.037035,6.449448l-20.037035,-9.944083a38.144577,36.508989 0 0 1 13.528709,-25.89013l19.376555,26.891641l-15.072303,-29.881969a38.055524,36.423754 0 1 1 35.621395,64.174848a37.988734,36.359828 0 0 1 0.59369,7.813208l-30.537925,-0.227293l30.070394,4.737645a38.092629,36.459269 0 0 1 -22.144634,27.47408a38.055524,36.423754 0 1 1 -52.860666,-26.7922a38.062945,36.430857 0 0 1 22.018475,-39.776331l-0.014842,-0.056823z"/>
    <path stroke="null" id="svg_9" opacity="0.1" d="m827.779228,438.87995a37.847732,36.224873 0 0 1 -18.204017,16.251472a38.055524,36.423754 0 1 1 -52.860666,-26.7922c-1.476804,-7.763487 73.068387,6.932446 71.064683,10.540728z"/>
   </g>
   <g stroke="null" id="svg_10" opacity="0.2">
    <path stroke="null" id="svg_11" fill="#3f3d56" d="m723.683122,307.156369a23.480436,22.473627 0 0 1 -1.669753,3.295753q-11.213318,-5.72495 -22.716061,-11.123167c0.103896,-0.305425 0.222634,-0.625057 0.348793,-0.930482a20.185457,19.319932 0 0 1 6.159533,-8.282c3.614087,-2.770137 7.970287,-3.814266 11.873798,-2.400786s6.397009,4.972041 7.176227,9.311923a20.192878,19.327035 0 0 1 -1.172538,10.128759z"/>
    <ellipse stroke="null" id="svg_12" fill="#3f3d56" transform="matrix(0.26401349676479796,-0.6638226128512774,0.6935615942440734,0.2526929557589298,-707.4231159804465,647.8364915108683) " ry="17.33" rx="22.69" cy="1614.325154" cx="1162.015409"/>
    <ellipse stroke="null" id="svg_13" fill="#3f3d56" transform="matrix(0.26401349676479796,-0.6638226128512774,0.6935615942440734,0.2526929557589298,-687.6150235219148,664.7133591258689) " ry="17.33" rx="22.69" cy="1580.935174" cx="1202.455411"/>
    <ellipse stroke="null" id="svg_14" fill="#3f3d56" transform="matrix(0.26401349676479796,-0.6638226128512774,0.6935615942440734,0.2526929557589298,-667.8117167213317,681.5835820320984) " ry="17.33" rx="22.69" cy="1547.535193" cx="1242.895403"/>
    <ellipse stroke="null" id="svg_15" fill="#3f3d56" transform="matrix(0.26401349676479796,-0.6638226128512774,0.6935615942440734,0.2526929557589298,-648.0105739470154,698.4650199733899) " ry="17.33" rx="22.69" cy="1514.155223" cx="1283.335389"/>
    <path stroke="null" id="svg_16" fill="#8163ff" d="m746.035547,86.788392a61.86249,59.20991 0 0 1 -1.966598,-7.94106l33.558323,6.541786l-34.255908,-12.20281a61.676961,59.032337 0 0 1 16.259683,-44.038081l36.77909,39.392773l-30.426608,-45.124827a61.595329,58.954205 0 1 1 70.567468,96.315544a61.907016,59.252527 0 0 1 2.567709,12.437206l-49.105577,5.45504l49.298527,1.882273a61.647277,59.003925 0 0 1 -29.870024,48.363757a61.595329,58.954205 0 1 1 -90.537713,-32.971737a61.595329,58.954205 0 0 1 27.101945,-68.138275l0.029684,0.028412z"/>
    <path stroke="null" id="svg_17" opacity="0.1" d="m835.311669,158.314759a61.291063,58.662985 0 0 1 -25.870038,29.555234a61.595329,58.954205 0 1 1 -90.537713,-32.971737c-3.955459,-12.160193 118.871564,-2.763034 116.407751,3.416503z"/>
   </g>
   <g stroke="null" id="svg_18" opacity="0.2">
    <path stroke="null" id="svg_19" fill="#3f3d56" d="m132.405069,368.39061a27.673371,26.486775 0 0 0 1.484225,4.119691q14.100136,-5.170923 28.519379,-9.944083c-0.081632,-0.376455 -0.163265,-0.767115 -0.26716,-1.150672a24.051863,23.020552 0 0 0 -5.988847,-10.654374c-3.844142,-3.778751 -8.823716,-5.62551 -13.610341,-4.503249s-8.311659,4.972041 -9.907201,9.944083a24.111232,23.077375 0 0 0 -0.230055,12.188604z"/>
    <ellipse stroke="null" id="svg_20" fill="#3f3d56" transform="matrix(0.7209372506178451,-0.16846502885253672,0.17601219320245753,0.6900244381734574,-1.6267130875704436,-23.641146872674852) " ry="26.98" rx="20.61" cy="546.026204" cx="65.216507"/>
    <ellipse stroke="null" id="svg_21" fill="#3f3d56" transform="matrix(0.7209372506178451,-0.16846502885253672,0.17601219320245753,0.6900244381734574,-0.9848587440749206,-22.455497860661737) " ry="26.98" rx="20.61" cy="511.236205" cx="64.766502"/>
    <ellipse stroke="null" id="svg_22" fill="#3f3d56" transform="matrix(0.7209372506178451,-0.16846502885253672,0.17601219320245753,0.6900244381734574,-0.3412439928786926,-21.270050249524346) " ry="26.98" rx="20.61" cy="476.436204" cx="64.326505"/>
    <ellipse stroke="null" id="svg_23" fill="#3f3d56" transform="matrix(0.7209372506178451,-0.16846502885253672,0.17601219320245753,0.6900244381734574,0.3023705904592401,-20.08460261905866) " ry="26.98" rx="20.61" cy="441.626205" cx="63.876508"/>
    <path stroke="null" id="svg_24" fill="#8163ff" d="m139.974615,105.206254a72.623119,69.509138 0 0 0 3.547297,-9.091733l-40.600969,2.969019l42.300407,-9.560525a73.328126,70.183915 0 0 0 -12.400698,-54.287589l-49.484055,41.367384l42.871833,-48.953299a73.261336,70.119989 0 1 0 -98.107259,103.702577a73.706603,70.546164 0 0 0 -4.94989,14.319479l57.105549,13.360585l-58.463615,-4.737645a73.328126,70.183915 0 0 0 27.777267,61.276858a73.253915,70.112886 0 1 0 111.880865,-26.138732a73.253915,70.112886 0 0 0 -21.52126,-84.226381l0.044527,0z"/>
    <path stroke="null" id="svg_25" opacity="0.1" d="m23.596549,177.009634a72.942228,69.814564 0 0 0 25.973934,38.561732a73.253915,70.112886 0 1 0 111.880865,-26.138732c6.589958,-13.815172 -139.791712,-20.030224 -137.854799,-12.423001z"/>
   </g>
   <path stroke="null" id="svg_26" fill="url(#b752362c-f89d-48d5-9dd1-266417fc8d3c)" d="m783.920385,86.795495l-718.913965,0a6.411851,6.13692 0 0 0 -6.40443,6.151125l0,421.117698a12.935019,12.380383 0 0 0 12.912756,12.401692l705.897313,0a12.935019,12.380383 0 0 0 12.912756,-12.401692l0,-421.117698a6.419272,6.144023 0 0 0 -6.40443,-6.151125z"/>
   <path stroke="null" id="svg_27" fill="#fff" d="m787.415735,112.94133l0,398.644071a12.80886,12.259633 0 0 1 -12.801439,12.252531l-700.175627,0a12.80886,12.259633 0 0 1 -12.80886,-12.259633l0,-398.636968l725.785925,0z"/>
   <path stroke="null" id="svg_28" fill="#ededf4" d="m787.415735,95.226657l0,17.714673l-725.785925,0l0,-17.714673a6.352482,6.080096 0 0 1 6.352482,-6.080096l713.080961,0a6.352482,6.080096 0 0 1 6.352482,6.080096z"/>
   <circle stroke="null" id="svg_29" opacity="0.8" fill="#fa5959" r="2.841166" cy="100.866371" cx="73.132551"/>
   <circle stroke="null" id="svg_30" opacity="0.8" fill="#fed253" r="2.841166" cy="100.866371" cx="81.295788"/>
   <circle stroke="null" id="svg_31" opacity="0.8" fill="#8ccf4d" r="2.841166" cy="100.866371" cx="89.459024"/>
   <rect stroke="null" id="svg_32" fill="url(#a11e32f9-0bc0-4cef-b66b-30dd4b707f0c)" transform="matrix(0,0.7102916240692139,-0.742112398147583,0,190.88352014569838,-951.8193786356329) " height="6" width="4" y="-371.750012" x="1447.24724"/>
   <rect stroke="null" id="svg_33" fill="#ededf4" height="7.102916" width="69.758565" y="147.880573" x="228.54573"/>
   <rect stroke="null" id="svg_34" fill="#ededf4" height="7.102916" width="391.835346" y="168.47903" x="228.54573"/>
   <rect stroke="null" id="svg_35" fill="#ededf4" height="7.102916" width="391.835346" y="189.077488" x="228.54573"/>
   <rect stroke="null" id="svg_36" fill="#ededf4" height="7.102916" width="391.835346" y="209.675945" x="228.54573"/>
   <rect stroke="null" id="svg_37" fill="#ededf4" height="7.102916" width="391.835346" y="230.274402" x="228.54573"/>
   <rect stroke="null" id="svg_38" fill="#ededf4" height="178.993489" width="241.928642" y="269.567734" x="303.372923"/>
   <path stroke="null" id="svg_39" fill="url(#ada07a9a-e50a-4215-9506-0eaaef22308f)" d="m466.786073,325.020203c-0.311687,0 -0.623374,0.042617 -0.942483,0.04972a4.140987,3.963427 0 0 0 0.103896,-1.264319a12.615911,12.074958 0 0 0 -1.484225,-5.121203a23.228118,22.232128 0 0 0 -1.840439,-2.670697c-2.018546,-2.670697 -3.888669,-5.398216 -6.107585,-7.919752a13.306075,12.735529 0 0 1 -2.352496,-3.317062a16.942426,16.215958 0 0 0 -0.801481,-1.92489a4.326515,4.141 0 0 0 -4.044513,-1.882273a6.419272,6.144023 0 0 0 -4.09646,2.074052c-0.623374,0.639262 -1.135432,1.626568 -0.615953,2.351065s1.64749,0.816835 1.71428,1.612362c0,0.426175 0,1.122261 -0.452689,1.257216a8.066762,7.72087 0 0 0 -2.270864,0.951791a2.679026,2.564153 0 0 0 -1.194801,1.988817c1.283854,0.184676 2.359917,-0.845247 3.525034,-1.420583a6.508326,6.229258 0 0 1 4.660466,-0.163367a4.363621,4.176515 0 0 1 1.602963,0.774218a5.647475,5.405319 0 0 1 1.038957,1.335348a14.894196,14.255553 0 0 1 2.567709,6.662535l0.653059,3.991839a27.079681,25.918541 0 0 0 -2.879396,0.369352a18.085279,17.309807 0 0 1 -7.666021,-0.497204c-2.597393,-0.710292 -5.194787,-2.003022 -7.873813,-1.420583c-1.25417,0.262808 -2.397023,0.930482 -3.666035,1.122261a10.040781,9.610246 0 0 1 -2.96845,-0.149161l-2.040809,-0.312528c-0.06679,-0.163367 -0.118738,-0.333837 -0.170686,-0.504307a15.391411,14.731448 0 0 1 -0.578848,-4.382499a8.163236,7.813208 0 0 0 6.975857,-11.073446a6.923909,6.627021 0 0 0 2.634499,-2.507329l-0.519479,-0.092338l0.489794,-0.710292a0.875693,0.838144 0 0 1 -0.141001,-1.328245a2.797764,2.677799 0 0 0 -1.402592,-0.298322c0.155844,-0.277014 -0.096475,-0.617954 -0.400741,-0.710292a3.487928,3.338371 0 0 0 -0.964746,-0.056823a4.727256,4.524558 0 0 1 -1.380329,-0.305425c-3.16882,-1.044129 -6.6048,-1.960405 -9.832989,-1.086746a12.296802,11.769532 0 0 0 -3.925775,1.974611a5.127997,4.908115 0 0 0 -2.092757,6.442345a17.424799,16.677647 0 0 1 1.046378,3.615384a11.992536,11.478313 0 0 1 -0.408162,3.430709a14.612193,13.985642 0 0 0 2.159547,0.46169a12.244855,11.719812 0 0 1 -2.144705,4.204926a17.454484,16.706059 0 0 1 -1.484225,1.569744l-0.089053,0a36.059241,34.51307 0 0 1 -4.452674,0.525616c-1.573278,0 -3.116872,-0.568233 -4.682729,-0.46169a12.697543,12.15309 0 0 0 -2.723553,0.589542a41.72898,39.939698 0 0 1 -12.549121,1.605259l-0.512058,0.04972l0.474952,-2.89799a14.894196,14.255553 0 0 1 2.567709,-6.662535a5.647475,5.405319 0 0 1 1.038957,-1.335348a4.393305,4.204926 0 0 1 1.610384,-0.774218a6.486062,6.207949 0 0 1 4.653045,0.163367c1.165116,0.546925 2.226337,1.576847 3.532455,1.420583a2.701289,2.585462 0 0 0 -1.202222,-1.988817a8.066762,7.72087 0 0 0 -2.270864,-0.951791c-0.430425,-0.134955 -0.489794,-0.831041 -0.452689,-1.257216c0.06679,-0.795527 1.246749,-0.965997 1.71428,-1.619465s0,-1.7047 -0.615953,-2.351065a6.426693,6.151125 0 0 0 -4.09646,-2.066949a4.311673,4.126794 0 0 0 -4.037091,1.882273a15.799573,15.122109 0 0 0 -0.808903,1.92489a13.306075,12.735529 0 0 1 -2.352496,3.317062c-2.226337,2.521535 -4.089039,5.249055 -6.107585,7.919752a24.719764,23.659814 0 0 0 -1.840439,2.663594a12.794018,12.245428 0 0 0 -1.484225,5.128306a4.185514,4.006045 0 0 0 0.103896,1.271422a0.853429,0.816835 0 0 0 -0.081632,0.319631a1.543594,1.477407 0 0 0 0.578848,0.994408c1.135432,1.093849 2.330233,2.223213 3.858984,2.692005a23.70307,22.686714 0 0 0 2.886817,0.475895c2.345075,0.404866 4.504622,1.7047 6.886803,1.697597c1.640068,0 3.257873,-0.625057 4.875678,-0.404866c2.226337,0.29122 3.8293,2.024331 5.194787,3.707722a13.358023,12.785249 0 0 1 2.560288,4.48194c0.5269,1.981714 0.20037,4.212029 1.306118,5.959347a4.237462,4.055765 0 0 1 0.638217,1.179084a4.126145,3.949221 0 0 1 -0.452689,1.931993c-0.935062,2.748829 1.113169,5.682333 0.897956,8.523499c-0.103896,1.385069 -0.742112,2.692005 -0.808903,4.077074c-0.111317,1.782832 0.645638,3.778751 -0.39332,5.263261c0.630796,-0.312528 1.269012,-0.589542 1.922071,-0.838144c-3.116872,8.74369 -5.936899,17.757291 -5.721687,26.948464c0.163265,5.959347 1.484225,12.522441 -2.092757,17.416351a7.183648,6.875623 0 0 0 -1.194801,1.953302c-0.282003,0.958894 0,1.974611 0.185528,2.954813c0.66048,4.26175 -1.743964,8.459573 -1.907229,12.785249a26.931259,25.776483 0 0 0 0.26716,3.984736l0.875693,7.202357a5.461947,5.227746 0 0 0 -2.389602,1.136467c-0.920219,0.710292 -1.729122,1.87517 -1.298697,2.940607c0.348793,0.859453 1.372908,1.271422 2.315391,1.484509a5.803319,5.554481 0 0 1 2.686447,0.9731a10.30052,9.858848 0 0 0 0.808903,0.767115a2.96845,2.841166 0 0 0 1.795912,0.319631c1.135432,-0.042617 2.226337,-0.134955 3.384033,-0.284117a1.343223,1.285628 0 0 0 0.675322,-0.205985a1.484225,1.420583 0 0 0 0.378477,-1.065437a14.745773,14.113495 0 0 0 -0.141001,-3.23893c-0.044527,-0.205985 -0.103896,-0.404866 -0.163265,-0.610851a13.172495,12.607676 0 0 0 0.823745,-2.841166c0.230055,-1.420583 0.26716,-2.905093 0.363635,-4.361191c0.222634,-3.707722 0.742112,-7.387033 1.335802,-11.066344l0.742112,-4.730542c0.230055,-1.555539 0.467531,-3.111077 0.742112,-4.666616a153.335264,146.760455 0 0 1 6.397009,-24.789178c0.630796,-1.726009 1.706859,-3.75034 3.614087,-3.80006l1.135432,2.130875c1.484225,2.670697 2.389602,5.632613 3.517613,8.438264c1.484225,3.686414 0.979588,7.990781 2.96845,11.457004c0.326529,0.575336 0.742112,1.122261 0.987009,1.726009a10.389574,9.944083 0 0 1 0.608532,2.890887l1.313539,12.785249c0.59369,5.746259 1.231907,11.648783 3.925775,16.812603a6.768065,6.47786 0 0 0 0.59369,0.951791a17.254113,16.51428 0 0 0 -0.037106,2.585462a1.061221,1.015717 0 0 0 1.0538,1.271422c1.12059,0.142058 2.226337,0.234396 3.376611,0.277014a2.96845,2.841166 0 0 0 1.795912,-0.319631a8.311659,7.955266 0 0 0 0.816324,-0.767115a5.773634,5.526069 0 0 1 2.679026,-0.9731c0.942483,-0.205985 1.966598,-0.617954 2.315391,-1.484509c0.437846,-1.065437 -0.378477,-2.223213 -1.298697,-2.940607a5.194787,4.972041 0 0 0 -2.64192,-1.171981a4.393305,4.204926 0 0 1 -1.202222,-0.092338a5.936899,5.682333 0 0 0 0.089053,-1.420583a7.421124,7.102916 0 0 1 -0.074211,-1.690494a10.486048,10.036421 0 0 1 0.608532,-1.662082c0.853429,-2.514432 -0.964746,-5.071482 -1.602963,-7.642738c-0.853429,-3.423606 0.415583,-7.010578 0.185528,-10.526522c-0.356214,-5.518966 -4.378463,-10.696992 -3.309821,-16.130723c0.853429,-4.346985 0.126159,-8.814719 -0.682743,-13.168807l-2.96845,-16.201752a18.760601,17.956172 0 0 0 -1.076063,-3.842678a9.461933,9.056218 0 0 0 1.617805,-0.411969c0.742112,-1.733112 0.615953,-3.643796 0.39332,-5.50476s-0.742112,-3.679311 -1.001852,-5.526069a38.062945,36.430857 0 0 1 -0.385898,-4.48194a18.871918,18.062716 0 0 1 0.326529,-4.418014a22.204003,21.251925 0 0 1 1.38775,-3.714825a68.919978,65.964783 0 0 1 5.194787,-9.944083c3.050082,-0.227293 6.003689,-0.475895 9.04635,-0.710292a12.563963,12.025237 0 0 0 2.166968,-0.277014a27.406211,26.23107 0 0 1 2.768079,-0.760012a3.710562,3.551458 0 0 0 1.024115,-0.191779c0.667901,-0.29122 1.076063,-1.108055 1.810754,-1.136467a3.146557,3.011636 0 0 0 0.831166,0c0.326529,-0.099441 0.489794,-0.440381 0.742112,-0.710292c0.46011,-0.490101 1.209643,-0.589542 1.810754,-0.909173a2.627078,2.514432 0 0 0 0.994431,-3.075563z"/>
   <circle stroke="null" id="svg_40" fill="#a1616a" r="7.813208" cy="309.436403" cx="428.181386"/>
   <path stroke="null" id="svg_41" fill="#a1616a" d="m418.756559,319.160297a20.341301,19.469093 0 0 1 -2.782921,2.692005a22.107528,21.159587 0 0 0 15.955417,2.514432c-0.20037,-0.532719 -0.92764,-0.610851 -1.439698,-0.880762a3.109451,2.976122 0 0 1 -1.261591,-1.903582a15.539834,14.873507 0 0 1 -0.474952,-5.760465a3.710562,3.551458 0 0 0 0,-1.420583a3.183662,3.047151 0 0 0 -1.536173,-1.619465a15.146514,14.497052 0 0 0 -3.710562,-1.598156c-1.350645,-0.383557 -2.122441,-0.56113 -2.174389,0.944688a12.504594,11.968414 0 0 1 -2.57513,7.031887z"/>
   <path stroke="null" id="svg_42" fill="#a1616a" d="m456.633976,324.075515l-0.831166,-5.043071a19.584346,18.744596 0 0 0 -0.66048,-2.997431a20.192878,19.327035 0 0 0 -1.899808,-3.636693a5.61037,5.369805 0 0 0 -1.038957,-1.328245a4.363621,4.176515 0 0 0 -1.602963,-0.774218a6.463799,6.18664 0 0 0 -4.645624,0.17047c-1.165116,0.539822 -2.226337,1.562642 -3.525034,1.385069a2.656762,2.542844 0 0 1 1.202222,-1.981714a7.844128,7.507782 0 0 1 2.226337,-0.951791c0.423004,-0.127852 0.489794,-0.823938 0.452689,-1.250113c-0.06679,-0.788424 -1.246749,-0.958894 -1.71428,-1.605259s0,-1.697597 0.608532,-2.343962a6.389588,6.115611 0 0 1 4.089039,-2.052743a4.28941,4.105486 0 0 1 4.037091,1.868067a15.703098,15.029771 0 0 1 0.808903,1.917787a13.358023,12.785249 0 0 0 2.345075,3.302856c2.226337,2.507329 4.089039,5.220643 6.100164,7.877134a25.68451,24.583193 0 0 1 1.840439,2.656491a12.549121,12.011031 0 0 1 1.484225,5.099894a3.317242,3.175004 0 0 1 -0.244897,1.612362a2.612236,2.500227 0 0 1 -2.226337,1.221702a7.888655,7.5504 0 0 1 -2.664184,-0.51141l-3.23561,-1.044129a2.107599,2.017228 0 0 1 -1.038957,-0.546925a0.816324,0.781321 0 0 1 0.13358,-1.044129z"/>
   <path stroke="null" id="svg_43" fill="#a1616a" d="m391.95888,325.190673l0.823745,-5.043071a20.445197,19.568534 0 0 1 0.667901,-2.997431a19.755032,18.907963 0 0 1 1.899808,-3.636693a5.246735,5.021762 0 0 1 1.031536,-1.321142a4.200356,4.020251 0 0 1 1.602963,-0.774218a6.486062,6.207949 0 0 1 4.653045,0.163367c1.165116,0.539822 2.226337,1.562642 3.525034,1.385069a2.671605,2.55705 0 0 0 -1.202222,-1.981714a7.933182,7.593017 0 0 0 -2.226337,-0.951791c-0.423004,-0.127852 -0.489794,-0.823938 -0.452689,-1.250113c0.06679,-0.788424 1.239328,-0.958894 1.71428,-1.605259s0,-1.697597 -0.615953,-2.336859a6.382167,6.108508 0 0 0 -4.089039,-2.059846a4.296831,4.112589 0 0 0 -4.037091,1.868067a15.665993,14.994256 0 0 0 -0.801481,1.917787a13.513867,12.93441 0 0 1 -2.345075,3.302856c-2.226337,2.507329 -4.089039,5.220643 -6.107585,7.877134a25.231822,24.149915 0 0 0 -1.833018,2.656491a12.667859,12.124678 0 0 0 -1.484225,5.099894a3.361769,3.217621 0 0 0 0.252318,1.619465a2.619657,2.507329 0 0 0 2.263443,1.214599a7.673442,7.344415 0 0 0 2.656762,-0.51141l3.243031,-1.015717a2.055651,1.967508 0 0 0 1.031536,-0.546925a0.816324,0.781321 0 0 0 -0.170686,-1.07254z"/>
   <path stroke="null" id="svg_44" fill="#3f3d56" d="m450.734182,440.314739c0.920219,0.710292 1.729122,1.868067 1.298697,2.926401c-0.356214,0.859453 -1.372908,1.264319 -2.315391,1.477407a5.847846,5.597098 0 0 0 -2.679026,0.965997a8.163236,7.813208 0 0 1 -0.808903,0.7316a2.916502,2.791446 0 0 1 -1.795912,0.319631c-1.128011,-0.042617 -2.226337,-0.134955 -3.376611,-0.277014a1.343223,1.285628 0 0 1 -0.675322,-0.205985a1.432277,1.370863 0 0 1 -0.371056,-1.058335a14.19661,13.587879 0 0 1 0.13358,-3.224724a4.823731,4.616896 0 0 1 1.625226,-2.748829c0.86085,-0.639262 3.473086,-2.535741 4.452674,-1.321142c0.259739,0.326734 0.155844,0.774218 0.519479,1.044129s0.935062,0.12075 1.350645,0.17047a5.194787,4.972041 0 0 1 2.64192,1.200393z"/>
   <path stroke="null" id="svg_45" fill="#3f3d56" d="m400.589647,440.684091c-0.920219,0.710292 -1.729122,1.868067 -1.298697,2.926401c0.348793,0.859453 1.365487,1.271422 2.30797,1.477407a5.818161,5.568686 0 0 1 2.679026,0.965997a8.311659,7.955266 0 0 0 0.816324,0.767115a2.96845,2.841166 0 0 0 1.788491,0.319631c1.128011,-0.042617 2.226337,-0.134955 3.376611,-0.284117a1.32096,1.264319 0 0 0 0.675322,-0.205985a1.432277,1.370863 0 0 0 0.378477,-1.058335a14.537982,13.914613 0 0 0 -0.141001,-3.217621a4.786625,4.581381 0 0 0 -1.625226,-2.755932c-0.853429,-0.639262 -3.465665,-2.535741 -4.452674,-1.321142c-0.259739,0.326734 -0.155844,0.781321 -0.5269,1.044129s-0.92764,0.12075 -1.350645,0.17047a5.239314,5.014659 0 0 0 -2.627078,1.171981z"/>
   <path stroke="null" id="svg_46" fill="#3f3d56" d="m413.205558,364.895975c-3.346927,9.233791 -6.597379,18.787213 -6.345061,28.582135c0.163265,5.930935 1.484225,12.465618 -2.085336,17.331116a7.079752,6.776182 0 0 0 -1.194801,1.946199c-0.282003,0.951791 0,1.960405 0.178107,2.940607c0.667901,4.26175 -1.729122,8.424059 -1.899808,12.728426a26.716046,25.570498 0 0 0 0.26716,3.963427l0.92764,7.585915c0.311687,2.599667 3.814458,3.665105 6.515747,4.027354a10.10015,9.667069 0 0 0 2.293127,-5.106997c0.230055,-1.420583 0.26716,-2.890887 0.356214,-4.332779c0.230055,-3.693516 0.786639,-7.358621 1.335802,-11.016623l0.742112,-4.709233c0.237476,-1.548436 0.467531,-3.096871 0.742112,-4.645307a152.622836,146.078575 0 0 1 6.40443,-24.597399c0.630796,-1.726009 1.706859,-3.736134 3.606666,-3.785854l1.135432,2.088257c1.484225,2.649388 2.382181,5.604201 3.510192,8.395647c1.484225,3.672208 0.972167,7.948163 2.96845,11.407283c0.326529,0.568233 0.742112,1.115158 0.979588,1.711803a10.315362,9.873054 0 0 1 0.608532,2.841166l1.313539,12.700014c0.59369,5.717848 1.224485,11.591959 3.918353,16.727368a4.059355,3.885295 0 0 0 1.239328,1.562642c1.098326,0.710292 2.634499,0.348043 3.710562,-0.39066a6.330219,6.058788 0 0 0 2.567709,-5.241952a8.215184,7.862928 0 0 1 -0.074211,-1.683391a11.695691,11.194196 0 0 1 0.608532,-1.654979c0.86085,-2.500227 -0.957325,-5.043071 -1.602963,-7.60012c-0.853429,-3.4094 0.415583,-6.975064 0.192949,-10.476801c-0.356214,-5.497657 -4.371042,-10.654374 -3.309821,-16.059694c0.853429,-4.325676 0.126159,-8.772102 -0.675322,-13.10488l-3.005555,-16.12362c-0.474952,-2.542844 -1.18738,-5.412422 -3.554718,-6.655433a8.831138,8.45247 0 0 0 -4.326515,-0.710292c-6.13727,0 -11.999957,0.816835 -18.048174,1.356657z"/>
   <path stroke="null" id="svg_47" fill="#8163ff" d="m466.786073,325.595539a10.612207,10.15717 0 0 1 -6.233744,-1.235907a12.512015,11.975517 0 0 0 -2.293127,-1.150672c-1.484225,-0.46169 -3.116872,-0.056823 -4.675308,0.163367a18.255965,17.473174 0 0 1 -7.651179,-0.497204c-2.597393,-0.710292 -5.194787,-1.995919 -7.866391,-1.420583c-1.25417,0.262808 -2.389602,0.923379 -3.658614,1.115158a9.736515,9.319026 0 0 1 -2.96845,-0.149161l-8.460081,-1.264319a23.139065,22.146893 0 0 0 -5.803319,-0.397763a37.56573,35.954962 0 0 1 -4.452674,0.532719c-1.565857,0 -3.109451,-0.568233 -4.675308,-0.468792a12.734649,12.188604 0 0 0 -2.716131,0.589542a41.803191,40.010727 0 0 1 -12.519436,1.598156a18.797707,17.991687 0 0 0 -9.417406,3.125283a1.484225,1.420583 0 0 0 -0.742112,0.987305a1.52133,1.456098 0 0 0 0.586269,0.980202c1.128011,1.093849 2.322812,2.21611 3.851563,2.684902a23.324593,22.324466 0 0 0 2.879396,0.468792c2.337654,0.411969 4.497201,1.697597 6.871961,1.697597c1.640068,0 3.250452,-0.625057 4.868257,-0.404866c2.226337,0.29122 3.821879,2.010125 5.194787,3.686414a13.484182,12.905999 0 0 1 2.560288,4.460631c0.519479,1.974611 0.192949,4.190721 1.298697,5.930935a4.28941,4.105486 0 0 1 0.638217,1.171981a4.081618,3.906604 0 0 1 -0.452689,1.92489c-0.935062,2.734623 1.113169,5.62551 0.897956,8.523499c-0.103896,1.370863 -0.742112,2.677799 -0.808903,4.048662c-0.103896,1.782832 0.645638,3.764546 -0.39332,5.241952a26.604729,25.463955 0 0 1 12.949861,-2.706211a16.237419,15.541181 0 0 1 2.226337,0.198882a31.168721,29.832248 0 0 1 4.215198,1.122261c3.10203,0.944688 6.515747,1.619465 9.57325,0.539822c0.742112,-1.726009 0.615953,-3.62959 0.385898,-5.476348s-0.705007,-3.665105 -0.994431,-5.50476a37.706731,36.089917 0 0 1 -0.385898,-4.460631a18.693811,17.892246 0 0 1 0.326529,-4.396705a21.773578,20.839956 0 0 1 1.38775,-3.693516a67.984917,65.069816 0 0 1 5.194787,-9.944083c3.042661,-0.234396 5.988847,-0.482998 9.031508,-0.710292a13.988819,13.388997 0 0 0 2.159547,-0.277014a27.792109,26.600421 0 0 1 2.760658,-0.752909a3.643772,3.487532 0 0 0 1.024115,-0.198882c0.667901,-0.29122 1.083484,-1.100952 1.810754,-1.122261a3.480507,3.331268 0 0 0 0.831166,0c0.326529,-0.092338 0.482373,-0.440381 0.742112,-0.710292c0.46011,-0.490101 1.209643,-0.589542 1.810754,-0.90207a2.612236,2.500227 0 0 0 1.090905,-2.94771z"/>
   <path stroke="null" id="svg_48" fill="#3f3d56" d="m429.598821,312.256262a1.484225,1.420583 0 0 0 1.684595,0.099441a2.092757,2.003022 0 0 0 0.623374,-1.093849a26.2782,25.151426 0 0 0 0.645638,-2.699108a3.094609,2.961916 0 0 1 0.371056,-1.129364c0.541742,-0.795527 1.71428,-0.838144 2.627078,-1.200393a6.827434,6.534683 0 0 0 2.693868,-2.528638l-0.512058,-0.099441l0.482373,-0.710292a0.86085,0.823938 0 0 1 -0.13358,-1.31404a2.738395,2.620976 0 0 0 -1.410014,-0.305425c0.155844,-0.269911 -0.096475,-0.610851 -0.400741,-0.710292a3.16882,3.032945 0 0 0 -0.957325,-0.04972a4.734677,4.531661 0 0 1 -1.380329,-0.312528c-3.161399,-1.037026 -6.589958,-1.953302 -9.810726,-1.079643a12.200328,11.677194 0 0 0 -3.925775,1.967508a5.098312,4.879703 0 0 0 -2.085336,6.392625a17.276377,16.535589 0 0 1 1.038957,3.586973a11.933167,11.421489 0 0 1 -0.400741,3.423606a11.666007,11.165784 0 0 0 2.70871,0.504307a3.888669,3.721928 0 0 0 2.597393,-0.710292c0.742112,-0.610851 1.157695,-1.555539 1.766228,-2.322654a2.515761,2.407889 0 0 1 2.144705,-1.079643c0.823745,0.12075 0.972167,0.923379 1.632647,1.370863z"/>
   <path stroke="null" id="svg_49" fill="#3f3d56" d="m408.13693,446.416144l-8.690136,0a1.135432,1.086746 0 0 0 0,2.130875l1.736543,0l0,14.113495l-29.736444,0a0.823745,0.788424 0 0 0 -0.66048,-0.383557l-8.682715,0a1.135432,1.086746 0 0 0 0,2.130875l1.736543,0l0,14.497052l-28.712329,0a0.920219,0.880762 0 0 0 -0.816324,-0.767115l-8.675294,0a1.128011,1.079643 0 0 0 0,2.130875l0.868272,0l0,14.916124l-29.187281,0a0.742112,0.710292 0 0 0 -0.356214,-0.092338l-8.682715,0a1.135432,1.086746 0 0 0 0,2.130875l0.868272,0l0,14.205832l-28.816224,0a0.831166,0.795527 0 0 0 -0.742112,-0.482998l-8.682715,0a1.135432,1.086746 0 0 0 0,2.130875l0.868272,0l0,15.732959l196.310993,0l0,-82.393828l-39.94791,0z"/>
   <path stroke="null" id="svg_50" opacity="0.1" fill="#8163ff" d="m128.427346,173.877248a20.549092,19.667975 0 0 0 -2.901659,-2.969019a2.493498,2.38658 0 0 1 0.274582,-3.80006c0.356214,-0.22019 0.705007,-0.454587 1.0538,-0.710292c4.051934,-2.94771 6.100164,-6.904035 4.563991,-8.843131s-6.070479,-1.115158 -10.122413,1.832552a15.58436,14.916124 0 0 0 -1.343223,1.07254a2.486077,2.379477 0 0 1 -3.888669,-0.710292a20.986939,20.087047 0 0 0 -1.996282,-3.040048c-3.606666,-4.545866 -8.445239,-6.840108 -10.812578,-5.121203s-1.372908,6.804594 2.226337,11.364666a20.46746,19.589843 0 0 0 2.337654,2.486021a2.50834,2.400786 0 0 1 -0.549163,3.828472l0,0c-4.452674,2.4363 -6.968435,6.108508 -5.706844,8.218074s5.87753,1.846758 10.293099,-0.582439a19.391397,18.55992 0 0 0 1.974019,-1.257216a2.50834,2.400786 0 0 1 3.784773,0.880762a19.487872,18.652258 0 0 0 2.226337,3.551458c3.599245,4.545866 8.445239,6.840108 10.812578,5.121203s1.372908,-6.769079 -2.226337,-11.322048z"/>
   <path stroke="null" id="svg_51" opacity="0.1" fill="#8163ff" d="m654.0804,296.622744a20.200299,19.334138 0 0 0 2.129863,-3.515944a2.478655,2.372374 0 0 1 3.866406,-0.85235c0.326529,0.255705 0.667901,0.504307 1.016694,0.752909c4.126145,2.841166 8.682715,3.551458 10.16694,1.598156s-0.653059,-5.881215 -4.779204,-8.736587q-0.742112,-0.504307 -1.484225,-0.916276a2.486077,2.379477 0 0 1 -0.408162,-3.771649a20.163194,19.298623 0 0 0 2.448971,-2.713314c3.495349,-4.623998 4.371042,-9.723892 1.966598,-11.364666s-7.19849,0.710292 -10.69384,5.362702a20.92757,20.030224 0 0 0 -1.803333,2.841166a2.50834,2.400786 0 0 1 -3.985144,0.617954l0,0c-3.710562,-3.331268 -8.163236,-4.595587 -9.877516,-2.841166s-0.126159,5.916729 3.591824,9.233791a17.914593,17.14644 0 0 0 1.833018,1.420583a2.50834,2.400786 0 0 1 0.215213,3.721928a19.925718,19.07133 0 0 0 -2.916502,3.11818c-3.495349,4.623998 -4.371042,9.723892 -1.959177,11.364666s7.176227,-0.688983 10.671576,-5.320084z"/>
   <ellipse stroke="null" id="svg_52" fill="#8163ff" ry="4.616896" rx="25.083399" cy="531.77899" cx="657.880015"/>
   <ellipse stroke="null" id="svg_53" fill="#3f3d56" ry="3.658002" rx="2.923923" cy="529.818585" cx="657.464433"/>
   <ellipse stroke="null" id="svg_54" fill="#3f3d56" ry="3.658002" rx="2.923923" cy="525.343748" cx="657.464433"/>
   <ellipse stroke="null" id="svg_55" fill="#3f3d56" ry="3.658002" rx="2.923923" cy="520.876014" cx="657.464433"/>
   <ellipse stroke="null" id="svg_56" fill="#3f3d56" ry="3.658002" rx="2.923923" cy="516.401177" cx="657.464433"/>
   <ellipse stroke="null" id="svg_57" fill="#3f3d56" ry="3.658002" rx="2.923923" cy="511.926339" cx="657.464433"/>
   <ellipse stroke="null" id="svg_58" fill="#3f3d56" ry="3.658002" rx="2.923923" cy="507.458605" cx="657.464433"/>
   <ellipse stroke="null" id="svg_59" fill="#3f3d56" ry="3.658002" rx="2.923923" cy="502.983768" cx="657.464433"/>
   <path stroke="null" id="svg_60" fill="#8163ff" d="m668.395748,472.377303a14.797721,14.163215 0 0 0 1.083484,-1.53423l-7.666021,-1.207496l8.296817,0.063926a13.981398,13.381894 0 0 0 0.26716,-10.611757l-11.131686,5.526069l10.270836,-7.223666a13.988819,13.388997 0 1 0 -23.10938,14.987153a14.315348,13.701525 0 0 0 -1.595542,2.443403l9.96657,4.972041l-10.62705,-3.4094a14.018503,13.417409 0 0 0 2.226337,12.572162a13.988819,13.388997 0 1 0 21.996211,0a14.003661,13.403203 0 0 0 0,-16.556898l0.022263,-0.021309z"/>
   <path stroke="null" id="svg_61" opacity="0.1" d="m643.408824,480.652201a13.973976,13.374791 0 0 0 2.96845,8.282a13.988819,13.388997 0 1 0 21.996211,0c1.892387,-2.280036 -24.964661,-9.780716 -24.964661,-8.282z"/>
   <ellipse stroke="null" id="svg_62" fill="#8163ff" ry="2.088257" rx="11.35432" cy="532.879942" cx="200.738778"/>
   <ellipse stroke="null" id="svg_63" fill="#3f3d56" ry="1.654979" rx="1.32096" cy="531.992078" cx="200.55325"/>
   <ellipse stroke="null" id="svg_64" fill="#3f3d56" ry="1.654979" rx="1.32096" cy="529.967747" cx="200.55325"/>
   <ellipse stroke="null" id="svg_65" fill="#3f3d56" ry="1.654979" rx="1.32096" cy="527.943416" cx="200.55325"/>
   <ellipse stroke="null" id="svg_66" fill="#3f3d56" ry="1.654979" rx="1.32096" cy="525.919084" cx="200.55325"/>
   <ellipse stroke="null" id="svg_67" fill="#3f3d56" ry="1.654979" rx="1.32096" cy="523.894753" cx="200.55325"/>
   <ellipse stroke="null" id="svg_68" fill="#3f3d56" ry="1.654979" rx="1.32096" cy="521.870422" cx="200.55325"/>
   <ellipse stroke="null" id="svg_69" fill="#3f3d56" ry="1.654979" rx="1.32096" cy="519.846091" cx="200.55325"/>
   <path stroke="null" id="svg_70" fill="#8163ff" d="m205.495719,505.988303a5.996268,5.739156 0 0 0 0.497215,-0.710292l-3.473086,-0.546925l3.755089,0a6.33764,6.06589 0 0 0 0.578848,-2.535741a6.256008,5.987758 0 0 0 -0.46011,-2.26583l-5.038943,2.500227l4.645624,-3.267341a6.330219,6.058788 0 1 0 -10.456364,6.783285a6.359903,6.087199 0 0 0 -0.742112,1.100952l4.504622,2.244522l-4.808888,-1.548436a6.33764,6.06589 0 0 0 1.024115,5.682333a6.33764,6.06589 0 1 0 9.951727,0a6.322798,6.051685 0 0 0 0,-7.493577l0.022263,0.056823z"/>
   <path stroke="null" id="svg_71" opacity="0.1" d="m194.185926,509.73154a6.330219,6.058788 0 0 0 1.358066,3.75034a6.33764,6.06589 0 1 0 9.951727,0c0.853429,-1.008614 -11.309793,-4.43222 -11.309793,-3.75034z"/>
  </g>
 </g>
</svg>