<svg width="888" height="600" xmlns="http://www.w3.org/2000/svg">
 <title>factory</title>

 <g>
  <title>background</title>
  <rect fill="none" id="canvas_background" height="602" width="890" y="-1" x="-1"/>
 </g>
 <g>
  <title>Layer 1</title>
  <g id="svg_65">
   <path id="svg_1" fill="#e2e2e2" d="m213.70122,452.706037l-21.87443,-34.71387l21.88457,38.49557l0.01173,3.95547q2.34084,-0.02736 4.63442,-0.17946l-1.78417,-50.81218l0.02346,-0.39275l-0.0402,-0.075l-0.16988,-4.80142l22.87164,-38.04637l-22.89523,34.4507l-0.06851,1.017l-1.34778,-38.39059l19.66232,-39.36387l-19.816,32.61808l-0.92176,-79.573l-0.00422,-0.26483l-0.00317,0.2606l-0.44881,62.73791l-18.78843,-25.10244l18.80506,30.50606l0.08719,34.362l-17.4329,-33.18692l17.44253,38.23878l0.04824,19.107l-25.32289,-46.20812l25.34285,52.87363l0.10437,42.48802z"/>
   <path id="svg_2" fill="#e2e2e2" d="m401.41283,452.706037l-21.87443,-34.71387l21.8846,38.49557l0.01173,3.95547q2.34084,-0.02736 4.63442,-0.17946l-1.78415,-50.81218l0.02346,-0.39275l-0.0402,-0.075l-0.16988,-4.80142l22.87162,-38.04635l-22.89524,34.4507l-0.0685,1.017l-1.34778,-38.39059l19.66232,-39.36387l-19.816,32.61808l-0.92176,-79.573l-0.00423,-0.26483l-0.00317,0.2606l-0.4488,62.73791l-18.78843,-25.10244l18.80506,30.50606l0.08719,34.362l-17.43291,-33.18692l17.44254,38.23878l0.04823,19.107l-25.32288,-46.20808l25.34285,52.87363l0.10434,42.48796z"/>
   <path id="svg_3" fill="#e2e2e2" d="m25.81131,454.938657l-15.79541,-25.0667l15.80273,27.79745l0.00847,2.85622q1.6903,-0.01975 3.34649,-0.12959l-1.28834,-36.6912l0.01694,-0.2836l-0.029,-0.05415l-0.12267,-3.46707l16.51548,-27.47309l-16.53253,24.87667l-0.04946,0.73435l-0.97323,-27.72164l14.19806,-28.42444l-14.309,23.55334l-0.6656,-57.45927l-0.00305,-0.19123l-0.00229,0.18817l-0.32408,45.30272l-13.567,-18.12634l13.579,22.02826l0.063,24.81262l-12.58821,-23.9641l12.59516,27.612l0.03484,13.79707l-18.28561,-33.36659l18.29994,38.17977l0.07537,30.68037z"/>
   <path id="svg_4" fill="#e2e2e2" d="m857.94505,452.706037l-21.87443,-34.71387l21.88456,38.49557l0.01173,3.95547q2.34084,-0.02736 4.63443,-0.17946l-1.78418,-50.81218l0.02346,-0.39275l-0.04019,-0.075l-0.16989,-4.80142l22.87164,-38.04637l-22.89523,34.4507l-0.0685,1.017l-1.34778,-38.39059l19.66231,-39.36387l-19.816,32.61808l-0.92176,-79.573l-0.00422,-0.26483l-0.00317,0.2606l-0.44881,62.73791l-18.78843,-25.10244l18.80506,30.50606l0.0872,34.362l-17.43291,-33.18692l17.44253,38.23878l0.04824,19.107l-25.32289,-46.20808l25.34285,52.87363l0.10438,42.48798z"/>
   <rect id="svg_5" fill="#8163ff" transform="rotate(-180 803.4278564453126,1015.3279418945312) " height="5" width="118" y="1630.360502" x="1224.141796"/>
   <rect id="svg_6" fill="#8163ff" transform="rotate(-180 791.4278564453126,1005.3279418945312) " height="5" width="118" y="1615.360502" x="1206.141796"/>
   <rect id="svg_7" fill="#8163ff" transform="rotate(-180 805.4278564453126,995.3279418945312) " height="5" width="118" y="1600.360502" x="1227.141796"/>
   <rect id="svg_8" fill="#8163ff" transform="rotate(-180 829.4278564453126,985.3279418945312) " height="5" width="118" y="1585.360502" x="1263.141796"/>
   <rect id="svg_9" fill="#3f3d56" transform="rotate(-180 514.7229614257814,965.2259521484375) " height="29.08849" width="4.09697" y="1543.163272" x="848.035951"/>
   <rect id="svg_10" fill="#3f3d56" transform="rotate(-112.09150695800781 -100.38591003417973,915.1075439453124) " height="163.62126" width="4.09697" y="1381.995474" x="307.44494"/>
   <rect id="svg_11" fill="#3f3d56" transform="rotate(-180 394.68170166015625,1067.240478515625) " height="13.9297" width="35.64365" y="1703.764479" x="652.200722"/>
   <rect id="svg_12" fill="#3f3d56" transform="rotate(-180 541.3532714843751,1093.461181640625) " height="15.56849" width="175.76006" y="1742.276102" x="802.149871"/>
   <polygon id="svg_13" fill="#e2e2e2" points="133.68 436.862 175.879 436.862 175.879 383.806 144.332 383.806 133.68 410.565 133.68 436.862"/>
   <rect id="svg_14" fill="#fff" transform="rotate(-180 476.6211242675781,1011.931396484375) " height="18.02667" width="18.02667" y="1618.752356" x="783.918344"/>
   <polygon id="svg_15" fill="#fff" points="137.777 405.315 149.249 405.315 149.249 387.289 144.332 387.289 137.777 405.315"/>
   <rect id="svg_16" fill="#3f3d56" transform="rotate(-180 488.9120178222656,1058.2271728515625) " height="7.78425" width="4.09697" y="1693.317233" x="809.319548"/>
   <path id="svg_17" fill="#3f3d56" transform="rotate(180 443.4356689453125,1025.041748046875) " d="m741.105009,1643.539078l0.20485,0a3.89212,3.89212 0 0 1 3.89212,3.89212l0,0a3.89212,3.89212 0 0 1 -3.89212,3.89212l-0.20485,0a0,0 0 0 1 0,0l0,-7.78425a0,0 0 0 1 0,0.00001z"/>
   <path id="svg_18" fill="#3f3d56" d="m298.17362,436.86198l-0.20485,0a-3.89212,-3.89212 0 0 1 -3.89212,-3.89212l0,0a-3.89212,-3.89212 0 0 1 3.89212,-3.89212l0.20485,0a0,0 0 0 1 0,0l0,7.78425a0,0 0 0 1 0,-0.00001z"/>
   <path id="svg_19" fill="#e2e2e2" d="m117.29236,429.018947a20.2704,20.2704 0 0 0 -15.75558,7.843l-8.00685,0l7.78425,-21.68366l36.25819,-7.151l-1.02424,28.83466l-3.50013,0a20.27042,20.27042 0 0 0 -15.75564,-7.843z"/>
   <circle id="svg_20" fill="#3f3d56" r="17.82182" cy="441.98319" cx="116.88267"/>
   <circle id="svg_21" fill="#e2e2e2" r="9.37991" cy="441.98319" cx="116.88267"/>
   <circle id="svg_22" fill="#3f3d56" r="15.56849" cy="444.03168" cx="277.89363"/>
   <circle id="svg_23" fill="#e2e2e2" r="8.19394" cy="444.03168" cx="277.89363"/>
   <rect id="svg_24" fill="#3f3d56" transform="rotate(-180 513.9035644531251,1034.6695556640625) " height="62.06911" width="8.60364" y="1630.838396" x="844.553524"/>
   <rect id="svg_25" fill="#3f3d56" transform="rotate(-180 629.0284423828126,1077.8927001953125) " height="3.68727" width="123.72853" y="1724.86398" x="959.678402"/>
   <rect id="svg_26" fill="#3f3d56" transform="rotate(-180 446.7132263183594,1033.6453857421875) " height="1.63879" width="4.09697" y="1659.517266" x="746.021356"/>
   <path id="svg_27" fill="#3f3d56" d="m324.39425,400.264707a0.40971,0.40971 0 0 1 -0.10422,-0.31848l5.65034,-53.43206a0.40987,0.40987 0 0 1 0.40569,-0.36669l0.0018,0a0.40985,0.40985 0 0 1 0.4071,0.36309l6.11104,53.32125a0.40975,0.40975 0 0 1 -0.4033,0.4563l-11.76139,0.11083l-0.0038,0a0.40928,0.40928 0 0 1 -0.30326,-0.13424zm5.97,-49.96645l-5.211,49.27688l10.84675,-0.10202l-5.63575,-49.17486z"/>
   <path id="svg_28" fill="#3f3d56" transform="rotate(20.71738052368164 86.94130706787097,-269.62329101562494) " d="m342.821547,366.081319l0.20485,0a3.89212,3.89212 0 0 1 3.89212,3.89212l0,0a3.89212,3.89212 0 0 1 -3.89212,3.89212l-0.20485,0a0,0 0 0 1 0,0l0,-7.78425a0,0 0 0 1 0,0.00001z"/>
   <rect id="svg_29" fill="#3f3d56" transform="rotate(-180 817.0794067382812,872.2246704101562) " height="59.81578" width="4.09697" y="1388.29772" x="1301.570627"/>
   <circle id="svg_30" fill="#3f3d56" r="5.73576" cy="359.01953" cx="179.36148"/>
   <rect id="svg_31" fill="#8163ff" transform="rotate(-180 649.4278564453126,1069.327880859375) " height="5" width="118" y="1711.360441" x="993.141796"/>
   <rect id="svg_32" fill="#8163ff" transform="rotate(-180 663.4278564453126,1059.327880859375) " height="5" width="118" y="1696.360441" x="1014.141796"/>
   <rect id="svg_33" fill="#8163ff" transform="rotate(-180 653.4278564453126,1051.327880859375) " height="5" width="118" y="1684.360441" x="999.141796"/>
   <rect id="svg_34" fill="#8163ff" transform="rotate(-180 667.4278564453126,1041.327880859375) " height="5" width="118" y="1669.360441" x="1020.141796"/>
   <path id="svg_35" fill="#e2e2e2" d="m382.33725,122.242207a15.59567,15.59567 0 0 1 10.23657,3.81414a15.60631,15.60631 0 0 1 6.88715,-0.30262a15.65993,15.65993 0 0 1 28.55484,8.887l-60.99694,0a15.66484,15.66484 0 0 1 15.31838,-12.39852z"/>
   <path id="svg_36" fill="#e2e2e2" d="m290.57156,171.590297a14.74417,14.74417 0 0 1 9.67768,3.6059a14.75453,14.75453 0 0 1 6.51113,-0.2861a14.80494,14.80494 0 0 1 26.99582,8.40174l-57.66666,0a14.80958,14.80958 0 0 1 14.48203,-11.72154z"/>
   <path id="svg_37" fill="#e2e2e2" d="m198.82419,90.198207a15.34075,15.34075 0 0 1 10.06927,3.75181a15.35133,15.35133 0 0 1 6.77459,-0.29768a15.404,15.404 0 0 1 28.08814,8.7417l-60,0a15.40882,15.40882 0 0 1 15.068,-12.19583z"/>
   <path id="svg_38" fill="#e2e2e2" d="m594.99875,245.185547l0,124.90576l48.57425,0l0,-126.64062l-11.27588,0.40271l0,-25.55737l-8.17871,0l-1.34766,-56.60376c3.30029,-2.15052 5.62305,-7.25818 5.62305,-13.222a21.66875,21.66875 0 0 0 -0.59375,-5.084a10.4004,10.4004 0 0 0 1.12012,-12.66773a10.40734,10.40734 0 1 0 13.4873,-15.85144a10.40972,10.40972 0 1 0 -14.01367,-9.767c0,0.15247 0.00488,0.30371 0.01123,0.45435a10.41549,10.41549 0 0 0 -13.33789,8.38257a10.409,10.409 0 1 0 -7.48535,19.1272c-0.002,0.07556 -0.00586,0.15051 -0.00586,0.22656a50.59934,50.59934 0 0 0 3.67627,8.43457a21.02593,21.02593 0 0 0 -1.07373,6.74487c0,5.96387 2.32226,11.07153 5.62255,13.222l-1.34765,56.60376l-8.17822,0l0,26.48674l-11.2764,0.40283zm41.6084,-119.67126l0.02686,0.00061c0.15039,0 0.29931,-0.00488 0.44775,-0.01123q0.14063,0.46143 0.32178,0.90356a10.45284,10.45284 0 0 0 -12.07276,-0.49011l11.27637,-0.40283z"/>
   <rect id="svg_39" fill="#3f3d56" transform="rotate(-180 1439.9658203125,967.148193359375) " height="170.58898" width="147.45827" y="1475.296403" x="2164.21963"/>
   <rect id="svg_40" fill="#e2e2e2" transform="rotate(-180 1439.9658203125,1103.0411376953125) " height="34.69606" width="39.75591" y="1747.082258" x="2218.07081"/>
   <path id="svg_41" fill="#e2e2e2" d="m519.11058,63.954817c-0.00282,0.126 -0.00953,0.2509 -0.00953,0.37748a17.2926,17.2926 0 0 0 5.26,12.43748a17.32924,17.32924 0 0 0 0.86719,1.62029a35.02934,35.02934 0 0 0 -1.79014,11.24144c0,13.17395 6.796,23.85355 15.17953,23.85355s15.17952,-10.6796 15.17952,-23.85355a36.10523,36.10523 0 0 0 -0.98931,-8.47345a17.33406,17.33406 0 0 0 1.86674,-21.11261a17.34558,17.34558 0 1 0 22.47882,-26.41915a17.34962,17.34962 0 1 0 -23.35625,-16.27825c0,0.254 0.00847,0.506 0.01906,0.75729a17.3592,17.3592 0 0 0 -22.23,13.97086a17.34835,17.34835 0 1 0 -12.4756,31.87862l-0.00003,0zm29.62672,-11.91071c0.25024,0 0.49871,-0.00838 0.74648,-0.01888q0.23348,0.76911 0.53578,1.506a17.38709,17.38709 0 0 0 -1.32708,-1.48825l0.04482,0.00113z"/>
   <path id="svg_42" fill="#8163ff" d="m529.94113,232.030037l17.3501,0l-0.61963,-26.02l0,-0.01l-2.27051,-95.41a11.09469,11.09469 0 0 1 -11.56982,0l-2.27,95.41l0,0.01l-0.62014,26.02z"/>
   <polygon id="svg_43" fill="#8163ff" points="498.141 250.82 498.141 459 579.092 459 579.092 247.93 560.301 248.6 560.301 206.01 516.931 206.01 516.931 250.15 498.141 250.82"/>
   <path id="svg_44" fill="#e2e2e2" d="m725.84129,63.954817c-0.00282,0.126 -0.00953,0.2509 -0.00953,0.37748a17.2926,17.2926 0 0 0 5.26,12.43748a17.32924,17.32924 0 0 0 0.86719,1.62029a35.02934,35.02934 0 0 0 -1.79014,11.24144c0,13.17395 6.796,23.85355 15.17952,23.85355s15.17953,-10.6796 15.17953,-23.85355a36.10576,36.10576 0 0 0 -0.98931,-8.47345a17.33406,17.33406 0 0 0 1.86674,-21.11261a17.34558,17.34558 0 1 0 22.47881,-26.41915a17.34962,17.34962 0 1 0 -23.35624,-16.27825c0,0.254 0.00847,0.506 0.01906,0.75729a17.3592,17.3592 0 0 0 -22.23,13.97086a17.34835,17.34835 0 1 0 -12.4756,31.87862l-0.00003,0zm29.62671,-11.91072c0.25024,0 0.49871,-0.00838 0.74648,-0.01888q0.23347,0.76911 0.53577,1.506a17.38528,17.38528 0 0 0 -1.32707,-1.48825l0.04482,0.00113z"/>
   <path id="svg_45" fill="#8163ff" d="m736.67428,232.029927l17.348,0l-2.89128,-121.43622a17.10079,17.10079 0 0 1 -11.56535,0l-2.89137,121.43622z"/>
   <polygon id="svg_46" fill="#8163ff" points="704.871 250.82 704.871 459 785.831 459 785.831 247.93 779.181 248.17 767.031 248.6 767.031 206.01 723.661 206.01 723.661 250.15 704.871 250.82"/>
   <rect id="svg_47" fill="#fff" transform="rotate(-180 1503.9658203125,857.7371826171875) " height="20" width="20" y="1386.474373" x="2323.94876"/>
   <rect id="svg_48" fill="#fff" transform="rotate(-180 1439.9658203125,857.7371826171875) " height="20" width="20" y="1386.474373" x="2227.94876"/>
   <rect id="svg_49" fill="#fff" transform="rotate(-180 1375.9658203125,857.7371826171874) " height="20" width="20" y="1386.474373" x="2131.94876"/>
   <rect id="svg_50" fill="#fff" transform="rotate(-180 1503.9658203125,921.7371826171875) " height="20" width="20" y="1482.474373" x="2323.94876"/>
   <rect id="svg_51" fill="#fff" transform="rotate(-180 1439.9658203125,921.7371826171875) " height="20" width="20" y="1482.474373" x="2227.94876"/>
   <rect id="svg_52" fill="#fff" transform="rotate(-180 1375.9658203125,921.7371826171874) " height="20" width="20" y="1482.474373" x="2131.94876"/>
   <rect id="svg_53" fill="#fff" transform="rotate(-180 1503.9658203125,985.7371826171875) " height="20" width="20" y="1578.474373" x="2323.94876"/>
   <rect id="svg_54" fill="#fff" transform="rotate(-180 1439.9658203125,985.7371826171875) " height="20" width="20" y="1578.474373" x="2227.94876"/>
   <rect id="svg_55" fill="#fff" transform="rotate(-180 1375.9658203125,985.7371826171874) " height="20" width="20" y="1578.474373" x="2131.94876"/>
   <rect id="svg_56" fill="#fff" transform="rotate(-180 1233.2352294921875,841.7371826171874) " height="20" width="20" y="1362.474373" x="1917.852819"/>
   <rect id="svg_57" fill="#fff" transform="rotate(-180 1233.2352294921875,905.7371826171874) " height="20" width="20" y="1458.474373" x="1917.852819"/>
   <rect id="svg_58" fill="#fff" transform="rotate(-180 1233.2352294921875,969.7371826171874) " height="20" width="20" y="1554.474373" x="1917.852819"/>
   <rect id="svg_59" fill="#fff" transform="rotate(-180 1233.2352294921875,1033.7371826171875) " height="20" width="20" y="1650.474373" x="1917.852819"/>
   <rect id="svg_60" fill="#fff" transform="rotate(-180 1646.3626708984375,841.7371826171875) " height="20" width="20" y="1362.474373" x="2537.544041"/>
   <rect id="svg_61" fill="#fff" transform="rotate(-180 1646.3626708984375,905.7371826171875) " height="20" width="20" y="1458.474373" x="2537.544041"/>
   <rect id="svg_62" fill="#fff" transform="rotate(-180 1646.3626708984375,969.7371826171875) " height="20" width="20" y="1554.474373" x="2537.544041"/>
   <rect id="svg_63" fill="#fff" transform="rotate(-180 1646.3626708984375,1033.7371826171875) " height="20" width="20" y="1650.474373" x="2537.544041"/>
   <rect id="svg_64" fill="#3f3d56" height="2" width="888" y="458.29537"/>
  </g>
 </g>
</svg>